<?xml version="1.0" encoding="UTF-8"?>
<svg id="Layer_1" xmlns="http://www.w3.org/2000/svg" version="1.1" viewBox="0 0 113.1 113.1">
  
  <defs>
    
  </defs>
  <rect class="st1" x="4.2" y="27.7" width="104.8" height="60.8" rx="4.9" ry="4.9"></rect>
  <line class="st1" x1="4.2" y1="39.3" x2="109" y2="39.3"></line>
  <polyline class="st1" points="4.2 66.9 84.6 66.9 96 74.4 109 74.4"></polyline>
  <line class="st1" x1="29.9" y1="39.3" x2="29.9" y2="66.9"></line>
  <line class="st1" x1="56.6" y1="39.3" x2="56.6" y2="66.9"></line>
  <line class="st1" x1="82.5" y1="39.3" x2="82.5" y2="66.9"></line>
  <path class="st1" d="M30.6,19.1h51.2c2.4,0,4.3,1.9,4.3,4.3v4.3H26.3v-4.3c0-2.4,1.9-4.3,4.3-4.3Z"></path>
  <circle class="st0" cx="27.8" cy="88.4" r="11.3"></circle>
  <circle class="st0" cx="27.8" cy="88.4" r="5.5"></circle>
  <circle class="st0" cx="84.9" cy="88.4" r="11.3"></circle>
  <circle class="st0" cx="84.9" cy="88.4" r="5.5"></circle>
</svg>