<?xml version="1.0" encoding="UTF-8"?>
<svg id="Layer_1" xmlns="http://www.w3.org/2000/svg" version="1.1" viewBox="0 0 113.1 113.1">
  
  <defs>
    
  </defs>
  <polyline class="st0" points="74.7 98.7 105.6 63.3 56.6 43.3 7.5 63.3 33.7 93.3"></polyline>
  <line class="st0" x1="56.6" y1="72.4" x2="56.6" y2="43.3"></line>
  <path class="st0" d="M11,92.6c6.5,0,6.5,6.3,12.9,6.3s6.5-6.3,12.9-6.3,6.5,6.3,12.9,6.3,6.5-6.3,12.9-6.3,6.5,6.3,12.9,6.3,6.5-6.3,12.9-6.3,6.5,6.3,12.9,6.3"></path>
  <polyline class="st0" points="27.1 55.3 27.1 32.6 87.2 32.6 87.2 55.8"></polyline>
  <rect class="st0" x="31.6" y="17" width="50" height="15.6"></rect>
  <rect class="st0" x="41" y="4.2" width="31.7" height="12.8"></rect>
</svg>