<?xml version="1.0" encoding="UTF-8"?>
<svg id="Layer_1" xmlns="http://www.w3.org/2000/svg" version="1.1" viewBox="0 0 113.1 113.1">
  
  <defs>
    
  </defs>
  <rect class="st1" x="4.2" y="71.4" width="104.8" height="11.9" rx="2.8" ry="2.8"></rect>
  <path class="st1" d="M12.5,19.1h54.2c2.1,0,3.8,1.7,3.8,3.8v48.5H8.7V22.9c0-2.1,1.7-3.8,3.8-3.8Z"></path>
  <path class="st1" d="M106,71.4h-35.5V31.9h17.8c1,0,2,.5,2.6,1.4l14.7,24.4c.3.5.4,1,.4,1.5v12.2Z"></path>
  <circle class="st0" cx="29.1" cy="84.7" r="9.7"></circle>
  <circle class="st0" cx="84.5" cy="84.7" r="9.7"></circle>
  <path class="st1" d="M96,56.2h-17.5c-.6,0-1.2-.5-1.2-1.2v-15.9c0-.6.5-1.2,1.2-1.2h7.7c.4,0,.8.2,1,.6l9.8,15.9c.5.8,0,1.8-1,1.8Z"></path>
  <line class="st1" x1="77.3" y1="62.3" x2="84.5" y2="62.3"></line>
</svg>