<?xml version="1.0" encoding="UTF-8"?>
<svg id="Layer_1" xmlns="http://www.w3.org/2000/svg" version="1.1" viewBox="0 0 113.1 113.1">
  
  <defs>
    
  </defs>
  <rect class="st1" x="12.2" y="4.2" width="88.5" height="82.2" rx="7.4" ry="7.4"></rect>
  <polyline class="st1" points="23.5 60.4 18.9 60.4 18.9 45.3"></polyline>
  <polyline class="st1" points="89 60.4 94.2 60.4 94.2 45.3"></polyline>
  <path class="st0" d="M26.3,31.9h59.9c1.6,0,2.8,1.3,2.8,2.8v59.2H23.5v-59.2c0-1.6,1.3-2.8,2.8-2.8Z"></path>
  <rect class="st0" x="31.2" y="39.6" width="49.2" height="19.9" rx="1.8" ry="1.8"></rect>
  <rect class="st0" x="33" y="69" width="14.2" height="9.5"></rect>
  <rect class="st0" x="63.9" y="69" width="14.2" height="9.5"></rect>
  <line class="st1" x1="33" y1="86.4" x2="78" y2="86.4"></line>
  <path class="st0" d="M23.5,94h14v9.6c0,3.4-2.8,6.2-6.2,6.2h-1.7c-3.4,0-6.2-2.8-6.2-6.2v-9.6h0Z"></path>
  <path class="st0" d="M75,94h14v9.6c0,3.4-2.8,6.2-6.2,6.2h-1.7c-3.4,0-6.2-2.8-6.2-6.2v-9.6h0Z"></path>
</svg>