<?xml version="1.0" encoding="UTF-8"?>
<svg id="Layer_1" xmlns="http://www.w3.org/2000/svg" version="1.1" viewBox="0 0 113.1 113.1">
  
  <defs>
    
  </defs>
  <path class="st1" d="M28.5,19.1h56.2c5.2,0,9.3,4.2,9.3,9.3v59.8H19.1V28.5c0-5.2,4.2-9.3,9.3-9.3Z"></path>
  <rect class="st0" x="25.7" y="4.2" width="63.6" height="15" rx="7.5" ry="7.5"></rect>
  <rect class="st1" x="29.8" y="64.7" width="13.2" height="13.2" rx="6.6" ry="6.6"></rect>
  <rect class="st1" x="71.9" y="64.7" width="13.2" height="13.2" rx="6.6" ry="6.6"></rect>
  <line class="st1" x1="47.8" y1="62.8" x2="67" y2="62.8"></line>
  <line class="st1" x1="47.8" y1="71.3" x2="67" y2="71.3"></line>
  <line class="st1" x1="47.8" y1="79.5" x2="67" y2="79.5"></line>
  <line class="st1" x1="29.5" y1="98.7" x2="85.4" y2="98.7"></line>
  <rect class="st1" x="30.5" y="29" width="53.8" height="24"></rect>
  <line class="st1" x1="33.9" y1="88.3" x2="24.2" y2="109.8"></line>
  <line class="st1" x1="80.9" y1="88.3" x2="90.5" y2="109.8"></line>
</svg>