<?xml version="1.0" encoding="UTF-8"?>
<svg id="Layer_1" xmlns="http://www.w3.org/2000/svg" version="1.1" viewBox="0 0 113.1 113.1">
  
  <defs>
    
  </defs>
  <path class="st0" d="M11.8,94h14v9.6c0,3.4-2.8,6.2-6.2,6.2h-1.7c-3.4,0-6.2-2.8-6.2-6.2v-9.6h0Z"></path>
  <path class="st0" d="M86.5,94h14v9.6c0,3.4-2.8,6.2-6.2,6.2h-1.7c-3.4,0-6.2-2.8-6.2-6.2v-9.6h0Z"></path>
  <path class="st1" d="M11.8,47.6h-4.4c-1,0-1.9-.8-1.9-1.9v-16.7c0-1,.8-1.9,1.9-1.9h4.4"></path>
  <path class="st1" d="M100.5,47.6h5.2c1,0,1.9-.8,1.9-1.9v-16.7c0-1-.8-1.9-1.9-1.9h-5.2"></path>
  <path class="st1" d="M15.6,4.2h81.1c2.1,0,3.8,1.7,3.8,3.8v86H11.8V8c0-2.1,1.7-3.8,3.8-3.8Z"></path>
  <rect class="st1" x="11.8" y="20.6" width="88.7" height="34.2"></rect>
  <line class="st1" x1="56.2" y1="19.8" x2="56.2" y2="54.8"></line>
  <rect class="st1" x="23.3" y="67.1" width="10.1" height="10.1" rx="5.1" ry="5.1"></rect>
  <rect class="st1" x="81.6" y="67.1" width="10.1" height="10.1" rx="5.1" ry="5.1"></rect>
</svg>