<?xml version="1.0" encoding="UTF-8"?>
<svg id="Layer_1" xmlns="http://www.w3.org/2000/svg" version="1.1" viewBox="0 0 1055.9 259.3">
  
  <defs>
    
  </defs>
  <rect class="st1" width="1055.9" height="259.3"></rect>
  <path class="st0" d="M434.7,175.4c0,35.1-38.1,57.9-93.6,57.9s-99.4-23.5-99.4-58.6,0-4.8.3-7.2h57.9c-.7,3.7-.7,7.2-.7,10.6,0,23.8,15.3,36.4,42.9,36.4s39.2-9.2,39.2-25.9c0-47.7-136.5-34-136.5-106.9s34.7-55.8,90.6-55.8,92.6,21.8,92.6,48.3,0,5.1-.7,7.8h-57.5c.3-1.7.3-3.4.3-5.1,0-19.7-15-32-37.1-32s-35.4,9.2-35.4,22.5c0,48.7,137.2,35.1,137.2,107.9ZM121.9,135.4h-4.2c0,13.9-11.3,25.2-25.2,25.2v4.2c14,0,25.3,11.3,25.3,25.3h4.1c0-14,11.3-25.3,25.3-25.3h0v-4.1h0c-14,0-25.3-11.3-25.3-25.3ZM108.8,29.4L34.9,229.9h26.2l54.8-149c2.3-6.2,3.5-12.6,3.6-19.2,0-.3,0-.5,0-.7h4.1c0,1.1.1,3,.3,5.1.3,4.8,1.3,9.6,2.8,14.1l49.1,149.7h60.6L162.3,29.4h-53.5ZM791.9,179.6l17.8,50.3h-57.9l-19.5-57.3c-6.8-20.4-12.3-27.2-33.4-27.2h-19.7v84.5s-52.8,0-52.8,0V29h90.2c52.1,0,86.8,17.7,86.8,58.6,0,8.7-1.6,16.4-4.7,23h0s0,0,0,0c-14.4,31.1-55.6,29.3-61.1,29.4v4.1c5.6,0,41-1.6,54.3,35.6ZM748.2,87.5c0-23.5-13.6-36.4-40.2-36.4h-28.9v72.9h28.9c26.6,0,40.2-12.6,40.2-36.4ZM433.4,51.8h90.7s0,4.1,0,4.1h0c-14,0-25.3,11.3-25.3,25.3v148.7h52.8V51.8h65v-22.5h-183.2v22.5ZM947.3,190.1h-87l-14.7,39.8h-26.2l73.9-200.5h53.5l74.2,200.5h-60.6l-13.1-39.8ZM939,164.9l-27.8-84.7c-1.5-4.6-2.4-9.3-2.8-14.1-.1-2.1-.3-4-.3-5.1h-4.1c0,.2,0,.4,0,.7-.1,6.6-1.4,13-3.6,19.2l-30.9,84h69.5Z"></path>
</svg>